<?xml version="1.0" encoding="UTF-8"?>
<svg id="Layer_3" xmlns="http://www.w3.org/2000/svg" version="1.1" viewBox="0 0 1080 1080">
  <!-- Generator: Adobe Illustrator 29.3.0, SVG Export Plug-In . SVG Version: 2.1.0 Build 146)  -->
  <path d="M-213.2,734.3l-11.4,3.7h0"/>
  <path d="M1102.1,649.3h0"/>
  <path d="M490.7,530c33.3-105.3,149.3-345.3,135-372C550,45.7,289.6,25.9,271.5,62.7c-113.8,341.8-126.8,741.4,50.2,970.4,55,17,180.8-27.2,248.5-97.3,8.5-8.7,6.6-23.2-3.5-29.7-58-66-59.3-73.8-81.3-126.8-19-43.9-28-144,5.3-249.3Z"/>
  <path d="M335.8,1041.7s41.6,21.7,91,7.3c82.4-23.9,137.9-50.8,344.5-4.7,105-52,193.2-188,179.2-232s-148.4-107.9-334.3-89.7c-146.3,14.3-231,69.3-231,69.3,0,0-111,71-108.2,111,2.8,40,19.6,120,58.8,138.7Z"/>
</svg>